# xmcd
#
# Track frame offsets: 
#        150
#        29851
#        50524
#        75971
#        160061
#        179844
#        196440
#        238825
#        255855
#        271669
#
# Disc length: 3852 seconds
#
# Revision: 0
# Processed by: cddbd v1.4PL0 Copyright (c) Steve Scherf et al.
# Submitted via: ExactAudioCopy v0.90b4
#
DISCID=810f0a0a
DTITLE=Van Morrison - The Paramount - JAH vol 1, disc 2
DYEAR=1995
DGENRE=Celtic
TTITLE0=Tupelo Honey > Why Must I Always Explain ?
TTITLE1=Melancholia
TTITLE2=Vanlose Stairway > Trans-Euro Train
TTITLE3=I'll Take Care Of You > It's A Man's World > Haji's Rap > When
TTITLE3=The Clock Strikes
TTITLE4=It's All In The Game > Make It Real One More Time
TTITLE5=Cleaning Windows
TTITLE6=In The Garden > Daring Night > You Send Me
TTITLE7=Gloria
TTITLE8=Buena Sera
TTITLE9=Days Like This
EXTD=
EXTT0=
EXTT1=
EXTT2=
EXTT3=
EXTT4=
EXTT5=
EXTT6=
EXTT7=
EXTT8=
EXTT9=
PLAYORDER=
